<svg width="329" height="61" viewBox="0 0 329 61" fill="none" xmlns="http://www.w3.org/2000/svg">
  <path
    d="M276.5 0C271.6 6.2 266.8 12.4 261.9 18.7C251.2 32.3 240.5 45.9 229.9 59.5C229.4 60.1 228.9 60.4 228.2 60.3C219.6 60.3 211 60.3 202.3 60.3C202 60.3 201.6 60.3 201.1 60.3C213.2 45.4 225.2 30.7 237.3 15.9C237 15.6 236.6 15.7 236.3 15.7C225.6 15.7 214.9 15.7 204.2 15.7C203.3 15.7 203.1 15.5 203.1 14.6C203.2 9.7 203.1 4.8 203.1 0C227.5 0 252 0 276.5 0Z"
    fill="#D6ED16"/>
  <path
    d="M316.2 0C308.6 9.7 301.1 19.3 293.5 28.9C293.1 29.4 293.1 29.7 293.6 30.1C302.8 38 312 46 321.3 53.9C323.7 56 326.1 58.1 328.7 60.3C328.2 60.3 327.9 60.3 327.6 60.3C317.7 60.3 307.8 60.3 297.9 60.3C297.4 60.3 297 60.3 296.6 59.9C286 50 275.4 40.1 264.8 30.2C264.3 29.7 264.3 29.5 264.7 28.9C272.3 19.4 279.8 9.9 287.3 0.3C287.4 0.2 287.4 0.1 287.5 0C297.1 0 306.7 0 316.2 0Z"
    fill="white"/>
  <path
    d="M195.5 1.3C195.5 0.9 195.5 0.4 195.2 0C154.6 0 114 0 73.3 0C73 0.4 73 0.8 73 1.3C73 3.3 73 5.2 73 7.2C73 16.7 73 26.3 73 35.8C70.6 32.1 66.9 30.6 62.8 30C62.9 30 63.1 29.9 63.3 29.8C69.1 27.4 71.7 22.4 71.6 16.8C71.5 11.7 69.1 7.7 64.8 4.9C60.6 2.2 55.8 1 50.9 0.3C49.5 0.1 48 0.2 46.6 0C46.5 0 46.3 0 46.2 0C46 0.1 45.8 0.1 45.6 0C30.6 0 15.7 0 0.7 0C0.1 0 0 0.1 0 0.8C0 20.7 0 40.5 0 60.4C0.3 60.6 0.6 60.5 0.9 60.5C3.9 60.5 6.8 60.5 9.8 60.5C24.2 60.4 38.6 60.7 52.9 60.4C58.3 60.3 63.3 58.9 68 56.2C70 55.1 71.7 53.6 73 51.7C73 54.2 73 56.8 73 59.4C73 60.5 73.1 60.6 74.1 60.6C94.4 60.6 114.8 60.6 135.1 60.6C135.9 60.6 136.2 60.3 136.2 59.6C136.2 55.4 136.2 51.2 136.2 46.9C136.2 46.1 135.8 45.7 135 45.7C134.6 45.7 134.2 45.7 133.9 45.7C127.9 45.7 122 45.7 116 45.7C110.3 45.7 104.6 45.7 98.9 45.7C97.7 45.7 97.6 45.6 97.6 44.4C97.6 42.5 97.6 40.5 97.6 38.6C97.6 36.8 97.6 36.8 99.4 36.8C110 36.8 120.6 36.8 131.2 36.8C132.8 36.8 133 36.6 133 35C133 31.8 133 28.6 133 25.4C133 23.3 132.9 23.2 130.8 23.2C120.4 23.2 110.1 23.2 99.7 23.2C99.3 23.2 99 23.2 98.7 23.2C98 23.2 97.7 22.9 97.7 22.2C97.7 20.6 97.7 19 97.7 17.3C97.7 16.3 97.8 16.2 98.8 16.1C99 16.1 99.1 16.1 99.3 16.1C115.9 16.1 132.6 16.1 149.2 16.1C150.9 16.1 150.9 16.1 150.9 17.8C150.9 29.9 150.9 42 150.9 54.1C150.9 55.8 150.9 57.5 150.9 59.1C150.9 60.2 151 60.3 152.2 60.3C159.7 60.3 167.2 60.3 174.6 60.3C176.5 60.3 176.5 60.3 176.5 58.4C176.5 46.4 176.5 34.5 176.5 22.5C176.5 20.7 176.5 18.9 176.5 17.1C176.5 16.3 176.8 16 177.6 16C177.9 16 178.2 16 178.6 16C183.7 16 188.8 16 193.9 16C195.3 16 195.5 15.8 195.5 14.4C195.5 10.1 195.5 5.7 195.5 1.3ZM24.2 16.4C24.2 15.8 24.4 15.7 24.9 15.7C27.3 15.7 29.7 15.7 33 15.7C35.5 15.7 38.7 15.7 42 15.9C45.5 16.1 48 19.4 47.2 22.7C46.7 24.7 44.7 26.2 42.3 26.4C39.2 26.6 36 26.5 32.9 26.5C30.3 26.5 27.7 26.5 25.1 26.5C24.5 26.5 24.3 26.4 24.3 25.8C24.3 22.7 24.3 19.6 24.2 16.4ZM51.2 43.7C50.6 45.7 48.7 47.2 46.5 47.2C42.9 47.3 39.3 47.2 35.7 47.2C32.1 47.2 28.6 47.2 25 47.2C24.4 47.2 24.2 47 24.2 46.4C24.2 43.3 24.2 40.1 24.2 37C24.2 36.4 24.4 36.2 25 36.2C31.6 36.2 38.2 36.2 44.7 36.2C46.5 36.2 48.2 36.7 49.6 38C51.3 39.6 51.9 41.5 51.2 43.7Z"
    fill="white"/>
</svg>
